/* XPM */
static char * bitcoin16_xpm[] = {
"16 16 122 2",
"  	c None",
". 	c #FFB702",
"+ 	c #FFB503",
"@ 	c #FFB701",
"# 	c #FFB002",
"$ 	c #FF9C01",
"% 	c #FF9101",
"& 	c #FF8B00",
"* 	c #FF8B01",
"= 	c #FF9201",
"- 	c #FF9E01",
"; 	c #FFBC04",
"> 	c #FFA401",
", 	c #FF8D00",
"' 	c #FF8F00",
") 	c #FF9000",
"! 	c #FF8E01",
"~ 	c #FFA601",
"{ 	c #FFB402",
"] 	c #FFA301",
"^ 	c #FF9300",
"/ 	c #FF9701",
"( 	c #BCA255",
"_ 	c #BA9F56",
": 	c #FF9702",
"< 	c #FF9400",
"[ 	c #FF9100",
"} 	c #FFB202",
"| 	c #FFB102",
"1 	c #FF9500",
"2 	c #FF9A00",
"3 	c #F1AA1D",
"4 	c #8C7B64",
"5 	c #8B7A63",
"6 	c #EDAA22",
"7 	c #FF9600",
"8 	c #FF9001",
"9 	c #FFB101",
"0 	c #FF9D01",
"a 	c #FF8E00",
"b 	c #FF9F00",
"c 	c #CDA540",
"d 	c #9C865C",
"e 	c #9E875C",
"f 	c #CAA442",
"g 	c #FFA000",
"h 	c #FF9B00",
"i 	c #FFA101",
"j 	c #FFB302",
"k 	c #FF9700",
"l 	c #FF9E00",
"m 	c #FEA603",
"n 	c #917E61",
"o 	c #D7AD3A",
"p 	c #D8AE39",
"q 	c #95815F",
"r 	c #F0A128",
"s 	c #FF9800",
"t 	c #FF9200",
"u 	c #FF9801",
"v 	c #FFB301",
"w 	c #FFB502",
"x 	c #FF8C00",
"y 	c #FFA100",
"z 	c #ECB024",
"A 	c #8D7D64",
"B 	c #F6B813",
"C 	c #FAB911",
"D 	c #8E7B63",
"E 	c #E6AE28",
"F 	c #FFA200",
"G 	c #FFB601",
"H 	c #FFB602",
"I 	c #C8A445",
"J 	c #938160",
"K 	c #E2B633",
"L 	c #E2B733",
"M 	c #8F7D62",
"N 	c #BD9D4B",
"O 	c #FFB401",
"P 	c #FFB901",
"Q 	c #FF9401",
"R 	c #FF9900",
"S 	c #FEA306",
"T 	c #9D875B",
"U 	c #917F61",
"V 	c #8E7D62",
"W 	c #9A855D",
"X 	c #FDA507",
"Y 	c #FF9901",
"Z 	c #FFB501",
"` 	c #FFA001",
" .	c #E5A92C",
"..	c #857565",
"+.	c #F8B016",
"@.	c #FEAD06",
"#.	c #F9B012",
"$.	c #8B7963",
"%.	c #E3A92E",
"&.	c #C7A348",
"*.	c #958160",
"=.	c #C5A249",
"-.	c #FFAA01",
";.	c #F3A41D",
">.	c #F6A114",
",.	c #EA9C2C",
"'.	c #FFAD01",
").	c #FFBA02",
"!.	c #FFC102",
"~.	c #FFAB01",
"{.	c #FF9301",
"].	c #FF9501",
"^.	c #FFAF01",
"/.	c #FFBB01",
"(.	c #FFA501",
"_.	c #FF9B01",
":.	c #FF9601",
"<.	c #FFA701",
"[.	c #FFBE02",
"}.	c #FFBF01",
"|.	c #FFBE01",
"1.	c #FFBC01",
"            . + + @             ",
"        # $ % & * = - #         ",
"    ; > & , ' ) ) ' , ! ~ {     ",
"    ] & ' ^ / ( _ : < [ , ~ }   ",
"  | & ) 1 2 3 4 5 6 2 7 ) 8 9   ",
"  0 a < 2 b c d e f g h 1 a i j ",
"@ % ) k l m n o p q r b s t u v ",
"w x t 2 y z A B C D E F 2 < = G ",
"H a ^ 2 y I J K L M N F h < % O ",
"P Q [ R S T n U V M W X R ^ Y Z ",
"  ` ' 1  ...+.@.@.#.$.%.7 [ > { ",
"  @ 8 t &.*.g F F g e =.^ Q G   ",
"    -.a ;.>.R h h R ,.;.8 '.).  ",
"    !.~.{.) t < < ^ ) ].^.).    ",
"        /.(._.:.:.$ <./.        ",
"            [.}.|.1.            "};
