/* XPM */
static char * bitcoin64_xpm[] = {
"64 64 534 2",
"  	c None",
". 	c #FFC007",
"+ 	c #FFC406",
"@ 	c #FFC805",
"# 	c #FFCA05",
"$ 	c #FFCA04",
"% 	c #FFC904",
"& 	c #FFC905",
"* 	c #FFC506",
"= 	c #FFC107",
"- 	c #FFC207",
"; 	c #FFCB04",
"> 	c #FFCC02",
", 	c #FFCC01",
"' 	c #FFC700",
") 	c #FFC100",
"! 	c #FFBD00",
"~ 	c #FFBB00",
"{ 	c #FFBE00",
"] 	c #FFC200",
"^ 	c #FFC600",
"/ 	c #FFC802",
"( 	c #FFC704",
"_ 	c #FFCC04",
": 	c #FFCD01",
"< 	c #FFC500",
"[ 	c #FFBC00",
"} 	c #FFBA00",
"| 	c #FFB900",
"1 	c #FFB701",
"2 	c #FFB501",
"3 	c #FFB402",
"4 	c #FFB302",
"5 	c #FFB601",
"6 	c #FFB801",
"7 	c #FFC501",
"8 	c #FFC603",
"9 	c #FFC206",
"0 	c #FFC307",
"a 	c #FFCE03",
"b 	c #FFC800",
"c 	c #FFAE03",
"d 	c #FFA704",
"e 	c #FFA104",
"f 	c #FF9C03",
"g 	c #FF9903",
"h 	c #FF9602",
"i 	c #FF9402",
"j 	c #FF9302",
"k 	c #FF9603",
"l 	c #FF9A03",
"m 	c #FF9E04",
"n 	c #FFA304",
"o 	c #FFAA04",
"p 	c #FFB003",
"q 	c #FFC502",
"r 	c #FFC305",
"s 	c #FFCF03",
"t 	c #FFB401",
"u 	c #FFAB04",
"v 	c #FF9803",
"w 	c #FF8E01",
"x 	c #FF8800",
"y 	c #FF8700",
"z 	c #FF8A01",
"A 	c #FF9102",
"B 	c #FFA404",
"C 	c #FFC401",
"D 	c #FFC900",
"E 	c #FFB202",
"F 	c #FFA604",
"G 	c #FF8C01",
"H 	c #FF8900",
"I 	c #FF8A00",
"J 	c #FF9001",
"K 	c #FFC403",
"L 	c #FFBE07",
"M 	c #FFCF02",
"N 	c #FFBF00",
"O 	c #FF9703",
"P 	c #FF8B00",
"Q 	c #FF8C00",
"R 	c #FFC001",
"S 	c #FFC106",
"T 	c #FFC606",
"U 	c #FFCA00",
"V 	c #FF9B03",
"W 	c #FF8D00",
"X 	c #FFB103",
"Y 	c #FFC204",
"Z 	c #FF8E00",
"` 	c #FF8F00",
" .	c #FF9702",
"..	c #FFB901",
"+.	c #FFC003",
"@.	c #FFB102",
"#.	c #FF9000",
"$.	c #FF9100",
"%.	c #FF8F01",
"&.	c #FFA504",
"*.	c #FFC002",
"=.	c #FFAF03",
"-.	c #FF9200",
";.	c #FF9300",
">.	c #FFA204",
",.	c #FFBF02",
"'.	c #FFC300",
").	c #FF9400",
"!.	c #FAAB27",
"~.	c #F6B936",
"{.	c #F6BA36",
"].	c #F9AD2A",
"^.	c #FF8B01",
"/.	c #FFBF03",
"(.	c #FFC306",
"_.	c #FF9500",
":.	c #FF9601",
"<.	c #EFD14C",
"[.	c #ECDA54",
"}.	c #EDD852",
"|.	c #FE9C0E",
"1.	c #FFBE04",
"2.	c #FFBE08",
"3.	c #FF9600",
"4.	c #FF9700",
"5.	c #FBA923",
"6.	c #CFBF5E",
"7.	c #A1936B",
"8.	c #BFB063",
"9.	c #F7B734",
"0.	c #FF8D01",
"a.	c #FFBD06",
"b.	c #FF9800",
"c.	c #FF9900",
"d.	c #F5C03D",
"e.	c #91836C",
"f.	c #403576",
"g.	c #675C72",
"h.	c #EAD954",
"i.	c #F1CD48",
"j.	c #FFAC04",
"k.	c #FFBC01",
"l.	c #FF9A00",
"m.	c #FF9B02",
"n.	c #EED44E",
"o.	c #E1CF57",
"p.	c #453A75",
"q.	c #CEBD5E",
"r.	c #ECD953",
"s.	c #FDA315",
"t.	c #FFBC03",
"u.	c #FFCE01",
"v.	c #FF9B00",
"w.	c #FAB029",
"x.	c #BCAD63",
"y.	c #5E5373",
"z.	c #C5B660",
"A.	c #786C70",
"B.	c #9C8E6A",
"C.	c #F6BD38",
"D.	c #FF9C00",
"E.	c #FFBC07",
"F.	c #FF9D00",
"G.	c #F4C540",
"H.	c #84776E",
"I.	c #A49669",
"J.	c #C0B062",
"K.	c #5D5273",
"L.	c #E9D755",
"M.	c #F0D04A",
"N.	c #FF9E01",
"O.	c #FF9202",
"P.	c #FFBB03",
"Q.	c #FF9502",
"R.	c #FF9E00",
"S.	c #FEA105",
"T.	c #EDD750",
"U.	c #DCCB59",
"V.	c #423676",
"W.	c #D0BF5D",
"X.	c #E2D057",
"Y.	c #463B75",
"Z.	c #C6B660",
"`.	c #ECDA53",
" +	c #FCAA1C",
".+	c #FF9F04",
"++	c #FFBB06",
"@+	c #FFC806",
"#+	c #FFC000",
"$+	c #FF9F00",
"%+	c #F9B62E",
"&+	c #B4A565",
"*+	c #6C6072",
"=+	c #8F816C",
"-+	c #93866C",
";+	c #F5C23C",
">+	c #FFA000",
",+	c #FF9101",
"'+	c #FFCE02",
")+	c #FFA100",
"!+	c #F2C943",
"~+	c #776B70",
"{+	c #A79968",
"]+	c #F3C941",
"^+	c #C3B361",
"/+	c #544974",
"(+	c #E6D456",
"_+	c #EFD34C",
":+	c #FFA303",
"<+	c #FFBB08",
"[+	c #FFA904",
"}+	c #FFA200",
"|+	c #FEA70C",
"1+	c #D6C65B",
"2+	c #D2C25C",
"3+	c #FDAC0D",
"4+	c #EED44D",
"5+	c #E3D257",
"6+	c #4A3F75",
"7+	c #BFB062",
"8+	c #FBB122",
"9+	c #FFBB04",
"0+	c #FFA300",
"a+	c #F8BC33",
"b+	c #AC9D67",
"c+	c #706471",
"d+	c #F2CD45",
"e+	c #FFA800",
"f+	c #F5C43A",
"g+	c #93866B",
"h+	c #8B7E6D",
"i+	c #F4C63E",
"j+	c #FFA400",
"k+	c #FFBB02",
"l+	c #FFCD02",
"m+	c #FFA500",
"n+	c #F1CD45",
"o+	c #6B6071",
"p+	c #AA9C67",
"q+	c #F8BF33",
"r+	c #FFAB00",
"s+	c #FBB621",
"t+	c #C6B760",
"u+	c #4C4175",
"v+	c #EED54F",
"w+	c #FEA706",
"x+	c #FFCB00",
"y+	c #FFAD03",
"z+	c #FDAD14",
"A+	c #CFBF5D",
"B+	c #D5C45B",
"C+	c #EDD851",
"D+	c #FEAF09",
"E+	c #FFAC00",
"F+	c #FFAC01",
"G+	c #EFD44C",
"H+	c #E5D356",
"I+	c #4F4474",
"J+	c #B9A964",
"K+	c #FAB627",
"L+	c #FFA600",
"M+	c #FF9802",
"N+	c #FFBB05",
"O+	c #FFC400",
"P+	c #F6C036",
"Q+	c #736770",
"R+	c #F2CD44",
"S+	c #FFAE00",
"T+	c #F6C539",
"U+	c #978A6B",
"V+	c #80746F",
"W+	c #EBD954",
"X+	c #F3CA42",
"Y+	c #FFA700",
"Z+	c #FF9201",
"`+	c #F0D048",
" @	c #EAD855",
".@	c #605473",
"+@	c #AD9F66",
"@@	c #F8C131",
"#@	c #FFB000",
"$@	c #FBB81E",
"%@	c #CABA5F",
"&@	c #DDCC59",
"*@	c #FEAA0B",
"=@	c #FFCD03",
"-@	c #FCB01B",
";@	c #C8B85F",
">@	c #D8C75A",
",@	c #FEB307",
"'@	c #FFB100",
")@	c #FFB200",
"!@	c #EFD44B",
"~@	c #B1A366",
"{@	c #F9BA2B",
"]@	c #FFBB01",
"^@	c #F5C33A",
"/@	c #9C8F6A",
"(@	c #F2CE43",
"_@	c #FFB300",
":@	c #F6C637",
"<@	c #9B8E6A",
"[@	c #756970",
"}@	c #FFA004",
"|@	c #EFD34B",
"1@	c #E7D555",
"2@	c #534874",
"3@	c #B1A266",
"4@	c #F8C22F",
"5@	c #FFB400",
"6@	c #FFB500",
"7@	c #FCBA1C",
"8@	c #CCBC5E",
"9@	c #423776",
"0@	c #D9C85A",
"a@	c #FEAD0F",
"b@	c #FFCF01",
"c@	c #FBB421",
"d@	c #C2B261",
"e@	c #413676",
"f@	c #DAC95A",
"g@	c #FEB505",
"h@	c #FFB600",
"i@	c #FFB700",
"j@	c #F0D34A",
"k@	c #584D74",
"l@	c #A89A67",
"m@	c #F8BD30",
"n@	c #FF9D03",
"o@	c #F4C63D",
"p@	c #92856C",
"q@	c #7C706F",
"r@	c #F3CD42",
"s@	c #FFB800",
"t@	c #F7C635",
"u@	c #9F9269",
"v@	c #6A5F72",
"w@	c #F1CF48",
"x@	c #FFA701",
"y@	c #E3D256",
"z@	c #F9C12D",
"A@	c #FCBA1A",
"B@	c #D4C35C",
"C@	c #EDD952",
"D@	c #FDAE15",
"E@	c #FF9E03",
"F@	c #FFD001",
"G@	c #BBAC63",
"H@	c #DCCA59",
"I@	c #FDB70E",
"J@	c #FDB80B",
"K@	c #FDB90B",
"L@	c #FDBA0B",
"M@	c #FDBB0B",
"N@	c #FDB70B",
"O@	c #EFD34A",
"P@	c #E8D655",
"Q@	c #5E5273",
"R@	c #9E9069",
"S@	c #F7BF35",
"T@	c #FFD002",
"U@	c #F4C840",
"V@	c #877A6E",
"W@	c #7D716F",
"X@	c #9F9169",
"Y@	c #615673",
"Z@	c #F0D14A",
"`@	c #FFA601",
" #	c #FFD003",
".#	c #FFA503",
"+#	c #EED64F",
"@#	c #DFCE58",
"##	c #443975",
"$#	c #D6C55B",
"%#	c #D9C85B",
"&#	c #CDBD5E",
"*#	c #FCAE1A",
"=#	c #FFBD01",
"-#	c #FFCD04",
";#	c #F9B82D",
">#	c #B3A465",
",#	c #95876B",
"'#	c #F6C139",
")#	c #FFBE02",
"!#	c #FFC706",
"~#	c #FFA302",
"{#	c #FFBE03",
"]#	c #FFCD00",
"^#	c #FEA308",
"/#	c #EDD751",
"(#	c #AFA066",
"_#	c #FBAE20",
":#	c #FFC005",
"<#	c #FFD301",
"[#	c #F8B932",
"}#	c #AB9D67",
"|#	c #EFD44E",
"1#	c #EFD54E",
"2#	c #EAD854",
"3#	c #685D72",
"4#	c #F5C33C",
"5#	c #F1CB46",
"6#	c #7F736F",
"7#	c #F3C840",
"8#	c #FFA801",
"9#	c #FFA901",
"0#	c #FFAA01",
"a#	c #FFAB01",
"b#	c #F8BC30",
"c#	c #4F4575",
"d#	c #E2D157",
"e#	c #FEA005",
"f#	c #FF9301",
"g#	c #FDA310",
"h#	c #ECD952",
"i#	c #D1C15C",
"j#	c #B6A765",
"k#	c #F9B82C",
"l#	c #FFA900",
"m#	c #FFAA00",
"n#	c #FDAC13",
"o#	c #D5C45C",
"p#	c #FBAE25",
"q#	c #FFC103",
"r#	c #FFD501",
"s#	c #F7BA36",
"t#	c #A39569",
"u#	c #FEA605",
"v#	c #F1CE47",
"w#	c #E9D855",
"x#	c #665A72",
"y#	c #F3C540",
"z#	c #FFCF04",
"A#	c #FF9901",
"B#	c #F0CD48",
"C#	c #645972",
"D#	c #7B6F6F",
"E#	c #F3C741",
"F#	c #F8BA31",
"G#	c #A59668",
"H#	c #493E75",
"I#	c #DFCD58",
"J#	c #EDD650",
"K#	c #FE9D09",
"L#	c #FFC202",
"M#	c #FFD200",
"N#	c #FCA217",
"O#	c #CBBA5E",
"P#	c #F9B62D",
"Q#	c #FDA815",
"R#	c #B7A864",
"S#	c #FAAE2A",
"T#	c #FFA804",
"U#	c #FFC405",
"V#	c #FFD303",
"W#	c #F5BC39",
"X#	c #9A8D6B",
"Y#	c #FEA208",
"Z#	c #F0CE48",
"`#	c #635873",
" $	c #766A70",
".$	c #F2C743",
"+$	c #FFB602",
"@$	c #FFD400",
"#$	c #FFBA01",
"$$	c #FF9501",
"%$	c #EFCF4B",
"&$	c #5D5173",
"*$	c #786B6F",
"=$	c #F3C742",
"-$	c #F7B832",
";$	c #A19369",
">$	c #DBCA5A",
",$	c #FE9B0F",
"'$	c #FFAD04",
")$	c #FFC605",
"!$	c #FFD004",
"~$	c #FCA21D",
"{$	c #E4D257",
"]$	c #F9B32E",
"^$	c #FDA416",
"/$	c #E7D556",
"($	c #F9AF2E",
"_$	c #FFC702",
":$	c #FFD801",
"<$	c #FCA01D",
"[$	c #EFD24D",
"}$	c #FE9D0A",
"|$	c #F2C844",
"1$	c #EDD752",
"2$	c #F9AC2B",
"3$	c #FE9404",
"4$	c #FE9706",
"5$	c #FE9806",
"6$	c #FE9906",
"7$	c #FF9801",
"8$	c #FE9A06",
"9$	c #FE9605",
"0$	c #FFB203",
"a$	c #FF9902",
"b$	c #FFD602",
"c$	c #FFD902",
"d$	c #FFCC00",
"e$	c #FFDA01",
"f$	c #FFD000",
"g$	c #FFD702",
"h$	c #FFD100",
"i$	c #FFD201",
"j$	c #FFD900",
"k$	c #FFB502",
"l$	c #FFD302",
"m$	c #FFBF08",
"n$	c #FFDB01",
"o$	c #FFCF00",
"p$	c #FFD300",
"q$	c #FFCC05",
"r$	c #FFD104",
"s$	c #FFDB00",
"t$	c #FFD403",
"u$	c #FFDC00",
"v$	c #FFAE04",
"w$	c #FFD103",
"x$	c #FFDD01",
"y$	c #FFD600",
"z$	c #FFD800",
"A$	c #FFBD08",
"B$	c #FFDC01",
"C$	c #FFD503",
"D$	c #FFCB05",
"E$	c #FFBF07",
"F$	c #FFD502",
"G$	c #FFDE01",
"H$	c #FFDF01",
"I$	c #FFD203",
"                                                    . + @ # $ $ % & @ * =                                                       ",
"                                            - ; > , ' ) ! ~ ~ ~ ~ ~ ~ { ] ^ / ( +                                               ",
"                                      . _ : < [ } } | 1 2 3 4 4 4 3 5 6 } } } } ! 7 8 9                                         ",
"                                  0 a b [ } | 3 c d e f g h i j i k l m n o p 5 } } } { q r                                     ",
"                              = s < ~ } t u e v w x y y y y y x x y x y y z A l B c 1 } } [ C 9                                 ",
"                            _ D ~ | E F g G y y x x H H H H I I I I H H H H x y x J m o 5 ~ } [ K L                             ",
"                        = M N } 3 F O H y x H H I I P P P P P Q Q P P P P I I I H x x G f u 6 ~ } R S                           ",
"                      T U ~ 6 u V z y x H I I P Q Q Q Q W W W W W W W W Q Q Q P P I I H x w e X } } [ Y                         ",
"                    # < } 2 B J y x H I P P Q Q W W Z Z Z Z ` ` ` ` ` Z Z Z W W Q Q P P I H H  .o ..~ ~ +.                      ",
"                  _ ] } @.m z x H I P P Q W Z Z ` ` #.#.#.$.$.$.$.$.$.#.#.#.` ` Z W W Q P I H x %.&.1 ~ } *.                    ",
"                ; ] } =.V x x H I P Q W Z Z ` #.#.$.-.-.-.;.;.;.;.;.-.-.-.$.$.#.#.` Z Z W Q P I H G >.2 ~ } ,.                  ",
"              & '.} =.g x x I P Q W Z Z ` #.$.-.;.;.;.).!.~.{.{.{.{.].).).;.;.-.$.$.#.` Z W Q P I H ^.e 5 ~ } /.                ",
"            (.b } @.l x H I P Q W Z ` #.$.-.;.;.)._._.:.<.[.[.[.[.[.}.|._._.).).;.;.-.$.#.` Z W Q P I ^.n 1 ~ ~ 1.              ",
"          2.: ~ 3 m x H I P Q Z Z #.$.-.;.)._._._.3.4.5.[.6.7.7.7.8.[.9.4.3._._._.).;.;.$.#.` Z W Q P H 0.F ..~ ~ a.            ",
"          a [ 6 B I H I P Q W ` #.$.-.;.)._.3.4.4.b.c.d.[.e.f.f.f.g.h.i.c.b.b.4.3._._.).;.-.#.#.Z W Q P I A j.~ ~ k.            ",
"        T '.} u %.x I P Q Z ` #.$.;.)._._.3.b.b.c.l.m.n.o.p.f.f.f.f.q.r.s.l.l.c.b.4.3._._.;.-.$.#.Z W Q P H l 4 ~ } t.          ",
"        u.~ 4 g x H P Q Z ` #.$.;.)._.3.4.b.c.l.v.v.w.[.x.f.y.z.A.f.B.[.C.D.v.v.l.c.b.4._._.).-.$.#.Z W Q I I n ..~ ~ E.        ",
"      & N } &.I H P Q W Z #.-.;.)._.3.b.c.l.v.D.F.F.G.[.H.f.I.[.J.f.K.L.M.N.F.D.v.l.c.b.4.3._.).-.$.#.Z W Q I O.c ~ ~ P.        ",
"      : ~ X Q.x I Q W Z #.$.;.)._.3.b.c.l.v.D.F.R.S.T.U.V.f.W.[.X.Y.f.Z.`. +R.R.F.D.v.l.c.4.3._.).-.$.` Z Q P H .+6 ~ } ++      ",
"    @+#+} &.H H P Q Z ` $.-.)._.3.b.c.l.D.F.R.$+$+%+[.&+f.*+[.[.[.=+f.-+[.;+>+$+R.F.D.v.l.c.4.3._.;.-.#.` W Q I ,+=.~ ~ P.      ",
"    '+~ 4  .H I Q W ` #.-.;._.3.b.c.l.D.F.R.$+>+)+!+[.~+f.{+[.]+[.^+f./+(+_+:+)+>+$+R.F.v.l.b.4._.).;.$.#.Z W P I e ..~ ~ <+    ",
"  = ' ~ [+^.H P Q Z #.$.;._._.4.c.l.D.F.R.$+)+}+|+}.1+f.f.2+}.3+4+5+6+f.7+[.8+}+)+>+$+R.F.v.l.b.4._.).-.#.` W Q I  .E ~ } 9+    ",
"  ; ! 6 .+x I Q W ` #.-.)._.4.b.l.v.F.R.$+)+}+0+a+[.b+f.c+[.d+e+f+[.g+f.h+[.i+j+0+)+>+$+R.D.v.c.b.3._.;.-.#.Z W P Q o [ ~ k+    ",
"  l+~ 4 Q.H P Q Z #.$.;._.3.b.c.v.F.R.$+)+}+j+m+n+[.o+f.p+[.q+r+s+[.t+f.u+X.v+w+j+0+}+>+R.F.D.l.c.4._.).-.$.` W Q I .+..~ }     ",
"2.x+~ y+G I Q W Z #.-.)._.4.b.l.D.F.$+>+}+0+m+z+r.A+f.f.B+C+D+E+F+G+H+I+f.J+[.K+L+j+0+)+>+R.F.v.l.b.3._.;.$.#.Z Q P M+3 ~ } N+  ",
"+ O+~ &.H I Q W ` $.-.).3.b.c.v.F.R.$+)+0+j+L+P+[.I.f.Q+[.R+S+S+S+T+[.U+f.V+W+X+Y+m+j+}+)+$+F.D.l.c.4._.).-.#.Z W P Z+p [ ~ P.  ",
"# { ...+H P Q Z #.$.;._.3.b.l.D.F.R.)+}+j+m+Y+`+ @.@f.+@[.@@#@#@#@$@[.%@f.Y.&@T.*@Y+m+0+)+>+R.F.v.c.b.3.).;.$.` W Q Q j.[ ~ k+  ",
"=@~ 1 V H P Q Z #.-.)._.4.c.l.D.R.$+)+0+j+Y+-@[.;@f.f.>@C+,@'@'@)@'@!@(+/+f.~@[.{@Y+L+j+}+>+$+F.D.l.b.3._.;.$.#.Z Q I &.[ ~ ]@  ",
"a ~ 3  .H P W Z #.-.)._.4.c.v.F.R.>+}+j+m+Y+^@[./@f.~+[.(@)@_@_@_@_@:@[.<@f.[@W+d+e+L+j+0+)+$+R.D.l.b.4._.;.$.#.Z Q I }@~ ~ ]@  ",
"'+~ 4 i I Q W ` $.;.)._.b.c.v.F.$+>+}+j+L+Y+|@1@2@f.3@[.4@5@6@6@6@6@7@`.8@f.9@0@C+a@Y+m+0+)+>+R.F.v.c.4._.;.-.#.Z Q P m ..~ ~   ",
"b@~ E j I Q W ` $.;._.3.b.l.D.F.R.)+}+j+L+c@[.d@f.e@f@C+g@6@h@i@i@h@6@j@1@k@f.l@[.m@Y+L+j+}+>+R.F.v.c.4._.).-.#.Z Q P n@6 ~ ~   ",
"b@~ E j I Q W ` $.;._.3.b.l.D.F.$+)+0+j+L+o@[.p@f.q@[.r@6@h@s@| | i@6@t@[.u@f.v@ @w@Y+L+j+}+>+$+F.v.c.b._.).-.#.Z W P n@6 [ ~   ",
"b@~ 4 i I Q W ` $.;._.3.b.l.D.R.$+)+0+m+x@n.y@6+f.&+[.z@6@i@s@} | i@h@A@`.6.e@f.B@C@D@L+j+}+>+$+F.v.c.b._.).-.$.Z W P E@..[ ~   ",
"F@~ 3 h I Q W ` $.;._.3.b.l.D.F.$+)+0+j+K+[.G@f.e@H@C+I@J@K@L@M@M@L@J@N@O@P@Q@f.R@[.S@L+j+}+>+$+F.v.c.b._.).-.#.Z W P .+} [ [   ",
"T@~ 5 g I Q W ` $.;._.3.b.l.v.F.$+)+}+j+U@[.V@f.W@[.[.r.r.r.`.`.`.`.r.r.[.[.X@f.Y@P@Z@`@j+}+>+R.F.v.c.4._.).-.#.Z Q P n [ ~ !   ",
" #[ 6 n@I P W ` $.;.)._.b.c.v.F.R.>+}+.#+#@###f.*+$#f@f@f@f@f@f@f@f@f@f@f@%#V@f.f.&#r.*#0+)+$+R.F.l.c.4._.;.-.#.Z Q P [+[ ~ =#  ",
"-#N } n H P W Z #.-.)._.4.c.v.F.R.>+}+;#[.>#f.f.f.e@e@e@e@e@e@e@e@e@e@e@e@e@f.f.f.,#[.'#0+)+$+F.D.l.b.4._.;.$.#.Z Q %.=.[ ~ )#  ",
"!#< ~ o P P Q Z #.-.)._.4.c.l.D.R.$+)+!+[.q@f.e@2@/+/+/+/+/+/+/+/+/+/+/+/+/+/+Y.f.k@(+_+~#>+$+F.D.l.b.3._.;.$.` Z Q h E [ ~ {#  ",
"= ]#~ X Z+P Q Z #.$.;._.3.b.l.D.F.$+^#/#0@e@f.(#P@P@P@P@P@P@P@P@P@P@P@P@P@P@P@&#9@f.Z.[._#$+R.F.v.c.b.3.).;.$.` W Q n@1 [ ~ :#  ",
"  <#~ 1 V I Q W ` #.-.).3.4.c.v.F.R.[#[.}#f.e@U.C@|#|#1#1#1#1#1#1#1#1#1#|#|#/#2#3#f.h+[.4#$+F.D.l.b.4._.).-.#.Z W P &.[ [ ! L   ",
"   #{ ~ &.P P W Z #.-.)._.3.b.l.D.F.5#[.c+f.6#[.7#8#9#0#a#F+F+F+F+F+a#a#0#9#b#[.l@f.c#d#n.e#F.v.c.b.3._.;.$.#.Z Q f#p [ ~ R     ",
"  T D ~ p Z+P Q Z ` $.;.).3.4.c.v.g#h#i#f.f.j#[.k#Y+Y+e+l#l#m#m#m#l#l#l#e+Y+n#C@o#9@f.7+[.p#D.l.b.4._.).-.#.` W Q n@1 [ ~ q#    ",
"    r#~ 6 }@I Q W Z #.-.)._.3.b.l.s#[.t#f.e@f@/#u#m+L+Y+Y+e+e+e+e+e+e+Y+L+L+m+v#w#x#f.V+[.y#v.c.b.3._.;.$.#.Z Q w o [ [ { =     ",
"    z#] [ j.J P Q Z #.$.;.)._.4.A#B#W+C#f.D#[.E#0+j+j+m+L+L+Y+Y+Y+L+L+m+m+j+0+F#[.G#f.H#I#J#K#b.4._.).-.#.` W Q l 3 [ ~ L#      ",
"    = M#~ 6 .+I Q W Z #.-.;._.3.N#r.O#f.f.&+[.P#)+}+0+0+j+j+m+j+j+j+j+j+0+}+)+Q#C@B@e@f.R#[.S#4._.).;.$.#.Z Q w T#[ [ [ U#      ",
"      V#) [ c O.P Q Z ` $.-.)._.W#[.X#f.f.>@C+Y#$+>+)+)+}+}+}+0+0+}+}+}+)+)+>+$+Z#L.`#f. $W+.$_._.;.-.#.` W Q n@+$[ ~ C         ",
"      = @$[ #$&.Q Q W Z #.$.;.$$%$L.&$p.*$[.=$F.R.R.$+$+>+)+)+)+)+>+)+>+$+$+R.R.-$[.;$p.H#>$/#,$).-.#.` Z Q f#'$[ [ { )$        ",
"        !$' [ 3 n@I Q W Z #.$.~$[.2#@#@#{$[.]$v.D.F.R.R.$+R.$+$+$+$+R.R.R.F.F.D.^$r./$@#@#P@[.($-.$.#.Z Q W &.#$[ ~ _$          ",
"        2.:${ [ c h P Q W ` #.<$J#}.}.}.}.[$}$l.l.v.D.F.F.F.F.R.F.F.F.F.D.D.v.l.l.|$}.}.}.}.1$2$$.` Z W Q .++$[ [ '.-           ",
"          T @$[ ~ o Z+P Q W Z #.3$4$5$6$6$M+4.b.c.l.l.l.v.v.D.v.v.D.v.v.l.l.c.b.b.7$8$6$5$5$9$$.` Z W Q V 0$[ [ { $             ",
"            !$]#~ #$T#,+P Q W Z #.$.-.;.)._._.3.4.b.b.c.c.l.c.l.l.c.c.c.b.b.4.4.3._._.).;.-.#.` Z W Q a$=.[ [ [ l+              ",
"              b$b ~ ..d ,+P Q W Z ` #.$.;.;.)._._.3.3.4.4.4.b.b.b.b.4.4.4.3._._._.).;.-.$.#.` Z W Q l =.[ [ ~ , .               ",
"              L c$^ ~ ..[+Q.P Q W Z ` #.$.$.;.;.)._._._._._.3.3.3.3._._._._.).).;.-.$.#.#.Z Z Q Q f p [ [ [ d$-                 ",
"                . e$' ~ ~ '$V P Q Q W Z ` #.$.$.-.;.;.;.).).)._.).).).).;.;.;.-.$.#.#.` Z W Q %.e 4 [ [ [ d$+                   ",
"                  . c$U [ [ 4 >.,+P Q W Z Z ` #.#.$.$.$.-.-.;.-.-.;.-.-.$.$.$.#.` ` Z W Q Q  .T#1 [ [ [ f$+                     ",
"                    2.g$h$! [ 6 j.f 0.P Q Q W Z Z ` ` #.#.#.#.#.#.#.#.#.#.` ` Z Z W Q Q Z+e X ~ [ [ #+i$-                       ",
"                        !$j$'.[ [ k$[+V %.P Q Q W W Z Z Z Z Z Z Z Z Z Z Z W W Q Q Q f#.+c 6 [ [ [ ' l$m$                        ",
"                          !#n$o${ [ [ k$j..+ .0.P Q Q Q Q W W W W W Q Q Q Q Q J a$n p 6 [ [ [ ) p$q$                            ",
"                            2.r$s$x+! [ [ ..E j.e V  .Z+w P P P P Q %.i M+n@B =.k$~ [ [ [ #+o$t$=                               ",
"                                0 t$u$]#) [ [ [ ~ 5 4 p v$j.o [+u '$=.X 3 6 [ [ [ [ [ '.f$b$T                                   ",
"                                    - w$x$y$D ) [ [ [ [ [ [ [ [ [ [ [ [ [ [ [ [ '.d$z$t$*                                       ",
"                                        A$& V#B$u$h$x+^ '.#+{ { { N ) O+' d$p$u$C$D$E$                                          ",
"                                                0 D$w$F$c$B$G$H$G$B$e$b$I$q$*                                                   ",
"                                                                                                                                "};
