/* XPM */
static char * bitcoin32_xpm[] = {
"32 32 278 2",
"  	c None",
". 	c #FFBF04",
"+ 	c #FFBE04",
"@ 	c #FFC204",
"# 	c #FFC001",
"$ 	c #FFC000",
"% 	c #FFB801",
"& 	c #FFB301",
"* 	c #FFAD02",
"= 	c #FFAF02",
"- 	c #FFB401",
"; 	c #FFB701",
"> 	c #FFBE00",
", 	c #FFBA02",
"' 	c #FFBB03",
") 	c #FFC201",
"! 	c #FFA502",
"~ 	c #FF9C02",
"{ 	c #FF9101",
"] 	c #FF8C01",
"^ 	c #FF8901",
"/ 	c #FF8A01",
"( 	c #FF8D01",
"_ 	c #FF9202",
": 	c #FF9E02",
"< 	c #FFA602",
"[ 	c #FFBC03",
"} 	c #FFB002",
"| 	c #FFA002",
"1 	c #FF8B01",
"2 	c #FF8800",
"3 	c #FF8900",
"4 	c #FF8A00",
"5 	c #FF8B00",
"6 	c #FFA402",
"7 	c #FFBB01",
"8 	c #FF8C00",
"9 	c #FF8E00",
"0 	c #FF8D00",
"a 	c #FF9402",
"b 	c #FFAC02",
"c 	c #FFBC00",
"d 	c #FFBA03",
"e 	c #FFC004",
"f 	c #FFA202",
"g 	c #FF8F00",
"h 	c #FF9000",
"i 	c #FF9100",
"j 	c #FF9200",
"k 	c #FF9300",
"l 	c #FF8E01",
"m 	c #FFA702",
"n 	c #FFB900",
"o 	c #FFBD01",
"p 	c #FFA102",
"q 	c #FF9400",
"r 	c #FF9500",
"s 	c #E9BD3C",
"t 	c #E7D252",
"u 	c #E7BE3F",
"v 	c #FFBB00",
"w 	c #FFBC04",
"x 	c #FFC101",
"y 	c #FF9600",
"z 	c #FF9800",
"A 	c #FE9D05",
"B 	c #E0C951",
"C 	c #423776",
"D 	c #403576",
"E 	c #DBC453",
"F 	c #FD9F09",
"G 	c #FF8F01",
"H 	c #FFAB02",
"I 	c #FFC203",
"J 	c #FF9700",
"K 	c #FF9900",
"L 	c #FF9B00",
"M 	c #F7B321",
"N 	c #A7945E",
"O 	c #61566F",
"P 	c #675A6E",
"Q 	c #9C8B62",
"R 	c #F4B627",
"S 	c #FF9A00",
"T 	c #FF9702",
"U 	c #FFB903",
"V 	c #FF9D00",
"W 	c #FF9E00",
"X 	c #E3C347",
"Y 	c #BCA758",
"Z 	c #C6B056",
"` 	c #594D71",
" .	c #E3C64A",
"..	c #FF9F00",
"+.	c #FFBA00",
"@.	c #FFC003",
"#.	c #FDA608",
"$.	c #DBC552",
"%.	c #463C74",
"&.	c #E2CC50",
"*.	c #E4CC4F",
"=.	c #4B4074",
"-.	c #D5C053",
";.	c #FCA90C",
">.	c #FF9502",
",.	c #FFB603",
"'.	c #FFA200",
").	c #F4BB27",
"!.	c #9B8A62",
"~.	c #7A6C6B",
"{.	c #E9BF39",
"].	c #EDBF33",
"^.	c #837468",
"/.	c #908064",
"(.	c #F0BC2D",
"_.	c #FFA000",
":.	c #FFAA02",
"<.	c #FFBC01",
"[.	c #FF9C00",
"}.	c #FFA100",
"|.	c #FFA400",
"1.	c #E3C84B",
"2.	c #C1AC57",
"3.	c #FAB815",
"4.	c #FBB511",
"5.	c #C9B455",
"6.	c #514572",
"7.	c #E3CA4D",
"8.	c #FFA600",
"9.	c #FFA302",
"0.	c #FFB804",
"a.	c #FCAE0C",
"b.	c #D4BF53",
"c.	c #473C75",
"d.	c #E3CC4F",
"e.	c #FFB201",
"f.	c #FFB000",
"g.	c #E3CC4E",
"h.	c #4E4373",
"i.	c #CCB755",
"j.	c #FBB210",
"k.	c #FFB403",
"l.	c #FFBD03",
"m.	c #FFB302",
"n.	c #FFA500",
"o.	c #F1BF2D",
"p.	c #8F7F65",
"q.	c #7D706A",
"r.	c #EAC236",
"s.	c #FFB300",
"t.	c #EEC230",
"u.	c #887967",
"v.	c #847669",
"w.	c #EDBE32",
"x.	c #FF9802",
"y.	c #FFB503",
"z.	c #FFBE03",
"A.	c #FFAE02",
"B.	c #FFA300",
"C.	c #E2CA4E",
"D.	c #514673",
"E.	c #C5B056",
"F.	c #FBBC13",
"G.	c #FFB700",
"H.	c #FCBB0F",
"I.	c #CEB855",
"J.	c #493E75",
"K.	c #FFA801",
"L.	c #FF9201",
"M.	c #FFB502",
"N.	c #FBB211",
"O.	c #CBB655",
"P.	c #E3CD4F",
"Q.	c #FFB601",
"R.	c #FFB500",
"S.	c #E2CB4D",
"T.	c #C3AE56",
"U.	c #FAB415",
"V.	c #FF9301",
"W.	c #FFB901",
"X.	c #FFB802",
"Y.	c #ECBE33",
"Z.	c #77696C",
"`.	c #E8D452",
" +	c #E3C94B",
".+	c #E3CA4B",
"++	c #E7D451",
"@+	c #81736A",
"#+	c #7A6D6B",
"$+	c #EABF38",
"%+	c #FF9B02",
"&+	c #FFA201",
"*+	c #4A3F74",
"=+	c #443975",
"-+	c #564B71",
";+	c #453A75",
">+	c #463B75",
",+	c #E2CD50",
"'+	c #FFB703",
")+	c #FF9F02",
"!+	c #FAAF15",
"~+	c #CFBB55",
"{+	c #D7C053",
"]+	c #D7C153",
"^+	c #D2BD55",
"/+	c #544873",
"(+	c #B7A35A",
"_+	c #F9B31A",
":+	c #FFB904",
"<+	c #FFC301",
"[+	c #FFA802",
"}+	c #E9BD39",
"|+	c #796B6B",
"1+	c #807269",
"2+	c #ECC037",
"3+	c #FCAF0B",
"4+	c #FCB10B",
"5+	c #FCB20B",
"6+	c #F1BF2F",
"7+	c #918165",
"8+	c #6F626D",
"9+	c #E7BF3F",
"0+	c #FFBD00",
"a+	c #FFC503",
"b+	c #FFB501",
"c+	c #FF9401",
"d+	c #FF9A02",
"e+	c #FBB013",
"f+	c #FFA700",
"g+	c #FFA800",
"h+	c #FCAD0C",
"i+	c #D2BC53",
"j+	c #E1CA51",
"k+	c #FE9D04",
"l+	c #FF9D02",
"m+	c #FFC100",
"n+	c #F9AC1A",
"o+	c #B6A15A",
"p+	c #493D74",
"q+	c #E3CB4F",
"r+	c #E2C84D",
"s+	c #AC995D",
"t+	c #F7AE1F",
"u+	c #FFCA03",
"v+	c #E5BC40",
"w+	c #968865",
"x+	c #968766",
"y+	c #EBBA36",
"z+	c #F1B92D",
"A+	c #A29161",
"B+	c #8F8166",
"C+	c #E5C044",
"D+	c #FFBE01",
"E+	c #FFC600",
"F+	c #EDB431",
"G+	c #E6BD3F",
"H+	c #FCA30E",
"I+	c #FDA10A",
"J+	c #EDB734",
"K+	c #FF9902",
"L+	c #FFC200",
"M+	c #FF9001",
"N+	c #FF9501",
"O+	c #FFCB04",
"P+	c #FFB102",
"Q+	c #FFC403",
"R+	c #FFCC04",
"S+	c #FFC500",
"T+	c #FFBF00",
"U+	c #FFC603",
"V+	c #FFC900",
"W+	c #FFC804",
"X+	c #FFCF03",
"Y+	c #FFB202",
"Z+	c #FFC903",
"`+	c #FFCB01",
" @	c #FFCA01",
".@	c #FFCD04",
"                              . . +                             ",
"                    @ # $ % & * = - ; > , '                     ",
"                @ ) = ! ~ { ] ^ / ( _ : < & > [                 ",
"              ) } | 1 2 3 4 5 5 5 5 5 4 3 { 6 - 7 +             ",
"          @ # < ( 3 4 5 8 9 9 9 9 9 9 0 0 5 3 a b c d           ",
"        e 7 f / 4 8 9 g h i j k k k j h h 9 8 5 l m n d         ",
"        o p 2 5 0 g h k q r s t t u r q k i h 9 8 ( < v w       ",
"      x < 4 5 0 h j q y z A B C D E F z y r j h 9 8 G H 7       ",
"    I } l 5 9 h k y J K L M N O P Q R L S z r q h 9 8 T % U     ",
"    $ p 4 0 h k r z S V W X O Y Z `  ...V L K r q h 9 5 < +.    ",
"  @.} ] 8 9 j y z S V W #.$.%.&.*.=.-.;...V L z q k g 5 >.; ,.  ",
"  x 6 3 0 h k y S V ..'.).!.~.{.].^./.(.'._.V S z r i 9 5 :.<.  ",
"  c ~ 8 0 j r z [...}.|.1.` 2.3.4.5.6.7.8.'...V S r k h 8 9.v 0.",
"  ; { 8 g k y S V }.|.a.b.c.d.e.f.g.h.i.j.|.'.W L z q h 8 ~ c k.",
"l.m.] 8 i k z L W }.n.o.p.q.r.s.s.t.u.v.w.8.'.W [.z y i 9 x.7 y.",
"z.A.4 0 h q z L ..B.8.C.D.E.F.G.G.H.I.J.*.K.|._.V K r j 9 L.% M.",
"z.= ] 0 h q J [.W B.N.O.J.P.Q.n n R.S.D.T.U.|._.V K r i 9 V.W.X.",
"@.- G 0 h q z [...B.Y.^.Z.`. +.+.+.+++@+#+$+|._.V K r j 9 %+v ,.",
"  % >.8 i q J S ..&+d.*+=+-+-+-+-+-+-+;+>+,+6 W [.z r i 9 : c '+",
"  > )+8 h k y S [.!+2.=.~+{+]+]+]+]+]+^+/+(+_+W S J q h 8 ! c :+",
"  <+[+5 9 j r z L }+|+1+2+3+4+4+5+4+3+6+7+8+9+V K y k g ( = 0+  ",
"  a+b+c+8 i k y d+&.>+Z e+8.f+g+g+f+f+h+i+C j+k+z q i 9 l+7 U   ",
"    m+< 8 0 i r n+o+p+q+}.'.n.|.|.|.B.'.r+/+s+t+r j h l * c     ",
"    u+% x.8 h k v+w+x+y+W .._.}._._...W z+A+B+C+k i 9 | v D+    ",
"      E+A.L.0 h F+v+G+H+S L W [.[.V L S I+u v+J+h g K+b+>       ",
"        L+:.M+0 g j q r J J K K S K z J y r j i 9 N+} 0+I       ",
"        O+$ H c+8 9 h j k r r r r r y k k h g 0 %+P+0+Q+        ",
"          R+S+} : 0 0 g h h j j j j i i g 9 M+9.; T+U+          ",
"              V+c H l+M+8 9 9 9 0 9 0 0 L.| } v L+W+            ",
"                X+E+c Y+[+p : %+~ | 9.[+Q.+.L+Z+                ",
"                    O+`+S+$ c v v v > L+ @U+                    ",
"                            .@R+O+R+                            "};
